<svg xmlns="http://www.w3.org/2000/svg" width="800" height="784" viewBox="0 0 800 784">
<g>
<path d="M 659.38 555.33 L 684.00 531.17 L 684.00 532.52 L 666.25 550.05 C656.49,559.69 645.06,570.82 640.86,574.79 C636.65,578.75 632.68,582.00 632.03,582.00 C630.47,582.00 619.97,571.99 613.76,564.58 L 608.81 558.66 L 609.54 434.08 C609.94,365.56 610.61,309.36 611.04,309.20 C611.47,309.03 611.58,292.54 611.28,272.56 L 610.75 236.24 L 611.75 235.16 L 611.44 397.29 L 611.13 559.54 L 621.00 569.85 C628.02,577.18 631.43,580.06 632.82,579.83 C633.89,579.65 645.85,568.63 659.38,555.33 ZM 629.15 216.56 C632.18,213.47 634.43,211.30 634.99,211.00 C635.00,211.00 635.02,210.99 635.03,210.99 C634.44,211.31 632.17,213.49 629.15,216.56 Z" fill="rgba(20,28,31,1)"/>
<path d="M 396.95 781.49 C395.00,780.24 390.05,775.90 385.95,771.83 C381.85,767.76 373.27,759.37 366.88,753.19 L 355.27 741.94 L 298.64 741.72 L 242.00 741.50 L 150.00 649.50 L 58.00 557.50 L 58.00 504.63 L 58.00 451.75 L 31.48 424.81 C16.90,410.00 4.24,396.78 3.37,395.44 C1.89,393.19 1.91,392.79 3.54,390.30 C4.51,388.82 17.16,375.62 31.65,360.96 L 58.00 334.31 L 58.02 279.90 L 58.05 225.50 L 150.70 133.75 L 243.36 42.00 L 300.99 42.00 L 358.62 42.00 L 361.06 39.80 C362.40,38.59 371.68,29.59 381.68,19.80 C391.68,10.01 400.65,2.00 401.61,2.00 C402.56,2.00 412.41,11.00 423.50,22.00 L 443.66 42.00 L 499.58 42.00 L 555.50 42.00 L 648.75 135.25 L 742.00 228.50 L 742.00 281.36 L 742.00 334.23 L 770.00 362.61 C786.96,379.79 798.00,391.74 798.00,392.89 C798.00,394.05 786.91,406.10 770.00,423.32 L 742.00 451.85 L 742.00 504.67 L 742.00 557.50 L 650.62 648.88 L 559.24 740.25 L 549.87 740.55 C544.72,740.72 518.91,741.14 492.52,741.49 L 444.53 742.12 L 425.52 760.85 C415.06,771.16 405.15,780.53 403.50,781.67 L 400.50 783.75 L 396.95 781.49 ZM 562.63 652.64 C584.90,630.59 591.06,623.94 590.38,622.74 C589.90,621.89 578.59,609.95 565.25,596.20 L 541.00 571.21 L 541.00 466.85 C541.00,347.20 540.23,292.00 538.58,292.00 C537.98,292.00 515.58,314.39 488.80,341.75 C420.13,411.93 401.79,430.00 399.29,430.00 C397.84,430.00 376.20,408.84 329.32,361.58 C292.00,323.94 260.79,293.01 259.98,292.83 C258.68,292.54 258.44,309.59 258.00,432.39 L 257.50 572.28 L 232.17 597.05 C210.40,618.34 206.98,622.09 207.85,623.66 C208.41,624.67 221.40,637.99 236.72,653.25 L 264.58 681.00 L 399.29 681.00 L 533.99 681.00 L 562.63 652.64 ZM 177.81 570.65 L 189.00 559.31 L 189.00 398.74 L 189.00 238.17 L 176.35 225.04 C169.39,217.82 162.82,211.44 161.74,210.86 C160.02,209.94 157.16,212.44 137.89,231.63 L 116.00 253.44 L 116.00 393.52 L 116.00 533.59 L 140.34 557.80 C153.72,571.11 165.11,582.00 165.64,582.00 C166.17,582.00 171.65,576.89 177.81,570.65 ZM 640.86 574.79 C645.06,570.82 656.49,559.69 666.25,550.05 L 684.00 532.52 L 684.00 394.44 L 684.00 256.36 L 663.75 235.72 C641.08,212.61 637.59,209.61 634.99,211.00 C634.04,211.51 628.20,217.40 622.01,224.08 L 610.75 236.24 L 611.28 272.56 C611.58,292.54 611.47,309.03 611.04,309.20 C610.61,309.36 609.94,365.56 609.54,434.08 L 608.81 558.66 L 613.76 564.58 C619.97,571.99 630.47,582.00 632.03,582.00 C632.68,582.00 636.65,578.75 640.86,574.79 ZM 470.43 261.00 L 540.67 191.00 L 547.08 190.80 C550.61,190.70 556.57,190.74 560.32,190.91 L 567.13 191.21 L 581.07 177.40 C588.73,169.81 595.00,163.12 595.00,162.55 C595.00,161.98 581.17,147.67 564.26,130.76 L 533.51 100.00 L 400.01 100.00 L 266.51 100.00 L 235.26 131.24 C218.07,148.43 204.00,163.19 204.00,164.04 C204.00,164.90 209.78,171.31 216.84,178.30 L 229.67 191.00 L 243.09 191.04 L 256.50 191.08 L 326.99 261.04 C365.75,299.52 398.08,331.00 398.83,331.00 C399.58,331.00 431.80,299.50 470.43,261.00 Z" fill="rgba(26,35,39,1)"/>
</g>
</svg>